<svg width="280" height="62" viewBox="0 0 280 62" fill="none" xmlns="http://www.w3.org/2000/svg">
<rect width="280" height="62" fill="#1E1E1E"/>
<rect y="0.220779" width="279.825" height="61.7792" fill="#D0B8AC"/>
<path d="M6.30469 38H0.890625L15.1875 2.84375H20.7188L34.9922 38H29.5781L26.0625 29.1641H9.82031L6.30469 38ZM11.5781 24.6172H24.3047L17.9297 8.5625L11.5781 24.6172Z" fill="#A9927D"/>
<path d="M66.3047 38H60.8906L75.1875 2.84375H80.7188L94.9922 38H89.5781L86.0625 29.1641H69.8203L66.3047 38ZM71.5781 24.6172H84.3047L77.9297 8.5625L71.5781 24.6172Z" fill="#A9927D"/>
<path d="M124.734 34.4609L127.195 30.5C128.242 31.3438 129.266 32.0469 130.266 32.6094C131.281 33.1562 132.305 33.5625 133.336 33.8281C134.367 34.0781 135.422 34.2031 136.5 34.2031C137.969 34.2031 139.25 33.9688 140.344 33.5C141.438 33.0312 142.289 32.375 142.898 31.5312C143.508 30.6875 143.812 29.7188 143.812 28.625C143.812 27.3906 143.453 26.3672 142.734 25.5547C142.031 24.7422 141.109 24.0469 139.969 23.4688C138.828 22.875 137.609 22.3125 136.312 21.7812C135.172 21.3125 134.031 20.8047 132.891 20.2578C131.766 19.6953 130.734 19.0469 129.797 18.3125C128.875 17.5781 128.133 16.6875 127.57 15.6406C127.023 14.5781 126.75 13.2969 126.75 11.7969C126.75 9.875 127.234 8.1875 128.203 6.73438C129.172 5.28125 130.508 4.15625 132.211 3.35938C133.93 2.5625 135.906 2.16406 138.141 2.16406C139.656 2.16406 141.203 2.36719 142.781 2.77344C144.375 3.16406 145.93 3.75 147.445 4.53125L145.359 8.72656C144.266 8.08594 143.102 7.58594 141.867 7.22656C140.648 6.86719 139.469 6.6875 138.328 6.6875C137.078 6.6875 135.977 6.89063 135.023 7.29688C134.086 7.70312 133.352 8.27344 132.82 9.00781C132.289 9.74219 132.023 10.6016 132.023 11.5859C132.023 12.6953 132.359 13.6328 133.031 14.3984C133.703 15.1641 134.578 15.8359 135.656 16.4141C136.75 16.9766 137.906 17.5234 139.125 18.0547C140.312 18.5859 141.492 19.1484 142.664 19.7422C143.852 20.3203 144.922 21.0078 145.875 21.8047C146.844 22.6016 147.617 23.5547 148.195 24.6641C148.789 25.7578 149.086 27.0781 149.086 28.625C149.086 30.6406 148.57 32.4062 147.539 33.9219C146.508 35.4219 145.062 36.5938 143.203 37.4375C141.359 38.2812 139.195 38.7031 136.711 38.7031C134.508 38.7031 132.398 38.3516 130.383 37.6484C128.383 36.9297 126.5 35.8672 124.734 34.4609Z" fill="#A9927D"/>
<path d="M186.305 38H180.891L195.188 2.84375H200.719L214.992 38H209.578L206.062 29.1641H189.82L186.305 38ZM191.578 24.6172H204.305L197.93 8.5625L191.578 24.6172Z" fill="#A9927D"/>
<path d="M269.406 40H263.734L243.531 12.8594V40H238.375V4.84375H244.047L264.25 32.0078V4.84375H269.406V40Z" fill="#A9927D"/>
<path d="M25.4469 52.8171C26.999 49.3223 28.5823 47.5749 30.1969 47.5749C30.8427 47.5749 31.3088 47.8457 31.5953 48.3874C31.8818 48.9238 32.025 49.7962 32.025 51.0046L32.0328 51.9421C32.0328 53.5671 32.2724 54.3926 32.7516 54.4186C33.137 54.4342 33.7437 53.9707 34.5719 53.028C35.4052 52.0853 36.2516 50.9004 37.1109 49.4733L37.7594 49.8327C36.9156 51.5046 35.9625 52.9186 34.9 54.0749C33.8427 55.2311 32.9703 55.8092 32.2828 55.8092C31.6422 55.8092 31.1812 55.5098 30.9 54.9108C30.6187 54.3119 30.4781 53.3327 30.4781 51.9733V51.278C30.4781 49.7051 30.2073 48.9186 29.6656 48.9186C28.9 48.9186 27.9234 49.9733 26.7359 52.0827C25.538 54.2077 24.9391 55.4681 24.9391 55.8639C24.9391 55.9941 24.9885 56.1217 25.0875 56.2467C24.8531 56.377 24.5484 56.4421 24.1734 56.4421C23.7099 56.4421 23.4781 56.2363 23.4781 55.8249C23.4781 55.5384 23.6422 54.6712 23.9703 53.2233C23.9807 53.1764 24.0484 52.8405 24.1734 52.2155L25.775 44.153C25.426 44.2832 25.0745 44.3483 24.7203 44.3483C23.7099 44.3483 23.2047 43.752 23.2047 42.5592C23.7047 42.9342 24.2854 43.1217 24.9469 43.1217C25.8792 43.1217 26.775 42.9342 27.6344 42.5592L26.3531 49.0202C26.3375 49.0931 26.0979 50.0619 25.6344 51.9264C25.5979 52.0827 25.5354 52.3796 25.4469 52.8171ZM42.2906 51.4733C41.624 52.8535 40.801 54.028 39.8219 54.9967C38.8479 55.9603 37.999 56.4421 37.275 56.4421C36.7229 56.4421 36.2802 56.1973 35.9469 55.7077C35.6187 55.2129 35.4547 54.5566 35.4547 53.7389C35.4547 52.1087 35.9469 50.6738 36.9312 49.4342C37.9208 48.1947 39.0641 47.5749 40.3609 47.5749C41.1474 47.5749 41.999 47.8197 42.9156 48.3092C43.051 47.8249 43.6031 47.5827 44.5719 47.5827C44.6344 47.5827 44.7359 47.5853 44.8766 47.5905C44.5797 48.0436 44.3531 48.6634 44.1969 49.4499L44.0641 50.1139C43.913 50.8535 43.8375 51.7181 43.8375 52.7077C43.8375 53.8483 44.1031 54.4186 44.6344 54.4186C45.1969 54.4186 45.9651 53.9499 46.9391 53.0124C47.9182 52.0697 48.8792 50.8717 49.8219 49.4186L50.4312 49.8405C49.4677 51.5592 48.3661 52.9941 47.1266 54.1452C45.887 55.291 44.8219 55.8639 43.9312 55.8639C42.8062 55.8639 42.2437 54.9264 42.2437 53.0514C42.2437 52.6608 42.2594 52.1348 42.2906 51.4733ZM42.6578 49.6061C41.5641 48.8926 40.6552 48.5358 39.9312 48.5358C39.1448 48.5358 38.4651 49.015 37.8922 49.9733C37.3193 50.9264 37.0328 52.0592 37.0328 53.3717C37.0328 54.4238 37.3766 54.9499 38.0641 54.9499C38.8088 54.9499 40.2333 53.3145 42.3375 50.0436C42.3635 50.002 42.4703 49.8561 42.6578 49.6061ZM50.8609 53.4421C52.7099 49.5306 54.3713 47.5749 55.8453 47.5749C56.9963 47.5749 57.5719 48.7207 57.5719 51.0124L57.5875 51.9577C57.5875 53.0514 57.6422 53.8092 57.7516 54.2311C57.8661 54.6478 58.0719 54.8561 58.3687 54.8561C58.8167 54.8561 59.3245 54.4994 59.8922 53.7858C60.4651 53.0723 61.3948 51.6374 62.6812 49.4811L63.3375 49.8639C62.1917 52.0254 61.1656 53.6296 60.2594 54.6764C59.3531 55.7233 58.5406 56.2467 57.8219 56.2467C57.1604 56.2467 56.6943 55.9264 56.4234 55.2858C56.1578 54.6452 56.025 53.5358 56.025 51.9577L56.0172 51.2858C56.0172 50.4316 55.9625 49.8327 55.8531 49.4889C55.7437 49.14 55.5536 48.9655 55.2828 48.9655C54.5953 48.9655 53.4885 50.3379 51.9625 53.0827C51.5875 53.7546 51.3453 54.1869 51.2359 54.3796C50.8349 55.0775 50.6344 55.5827 50.6344 55.8952C50.6344 56.0202 50.6682 56.14 50.7359 56.2546C50.4338 56.3796 50.1786 56.4421 49.9703 56.4421C49.4443 56.4421 49.1812 56.1504 49.1812 55.5671C49.1812 55.4004 49.249 54.6504 49.3844 53.3171L49.5562 51.6217C49.6344 50.903 49.6734 50.3457 49.6734 49.9499C49.6734 49.3978 49.5484 48.9629 49.2984 48.6452C49.4078 48.6087 49.5901 48.5462 49.8453 48.4577C50.1682 48.3431 50.426 48.2858 50.6187 48.2858C51.025 48.2858 51.2281 48.5827 51.2281 49.1764C51.2281 49.4889 51.1891 50.0254 51.1109 50.7858C51.0953 50.9525 51.0797 51.1113 51.0641 51.2624L50.8609 53.4421ZM67.7828 51.6764C66.9703 53.14 66.1187 54.3014 65.2281 55.1608C64.3427 56.015 63.551 56.4421 62.8531 56.4421C62.2958 56.4421 61.8531 56.1999 61.525 55.7155C61.1969 55.2259 61.0328 54.5723 61.0328 53.7546C61.0328 52.1087 61.5224 50.6686 62.5016 49.4342C63.4807 48.1947 64.6187 47.5749 65.9156 47.5749C66.6917 47.5749 67.538 47.8223 68.4547 48.3171L69.2906 44.1061C68.8323 44.1999 68.4521 44.2467 68.15 44.2467C67.6917 44.2467 67.3557 44.14 67.1422 43.9264C66.9286 43.7077 66.7568 43.3014 66.6266 42.7077C67.0016 42.9629 67.5771 43.0905 68.3531 43.0905C69.3167 43.0905 70.2463 42.9134 71.1422 42.5592L69.4391 51.1217C69.2463 52.0801 69.15 52.8952 69.15 53.5671C69.15 54.4629 69.4052 54.9108 69.9156 54.9108C70.4156 54.9108 71.2463 54.3249 72.4078 53.153C73.5745 51.9811 74.5458 50.7546 75.3219 49.4733L75.9625 49.8796C75.0354 51.5775 73.8766 53.0957 72.4859 54.4342C71.1005 55.7728 69.9937 56.4421 69.1656 56.4421C68.1135 56.4421 67.5875 55.5983 67.5875 53.9108C67.5875 53.2129 67.6526 52.4681 67.7828 51.6764ZM68.1969 49.6061C67.1135 48.8926 66.2125 48.5358 65.4937 48.5358C64.7125 48.5358 64.0354 49.015 63.4625 49.9733C62.8948 50.9316 62.6109 52.0645 62.6109 53.3717C62.6109 54.4238 62.9547 54.9499 63.6422 54.9499C64.3818 54.9499 65.8036 53.3145 67.9078 50.0436C67.9443 49.9863 68.0406 49.8405 68.1969 49.6061ZM82.4625 49.8796C81.3844 51.9264 80.301 53.5332 79.2125 54.6999C78.124 55.8613 77.1604 56.4421 76.3219 56.4421C75.7125 56.4421 75.2203 56.2077 74.8453 55.7389C74.4703 55.265 74.2828 54.6478 74.2828 53.8874C74.2828 53.4603 74.3609 52.8561 74.5172 52.0749L76.0719 44.2467C75.8687 44.278 75.6917 44.2936 75.5406 44.2936C74.3427 44.2936 73.7437 43.7936 73.7437 42.7936V42.6139C74.3687 42.9681 75.0745 43.1452 75.8609 43.1452C76.6474 43.1452 77.3349 42.9499 77.9234 42.5592L76.1109 51.9577C75.9495 52.8014 75.8687 53.3822 75.8687 53.6999C75.8687 54.5801 76.1917 55.0202 76.8375 55.0202C77.4625 55.0202 78.0901 54.6686 78.7203 53.9655C79.3557 53.2572 80.3948 51.752 81.8375 49.4499L82.4625 49.8796ZM81.8766 52.9967C81.8766 54.5228 82.5224 55.2858 83.8141 55.2858C84.9338 55.2858 86.1682 54.752 87.5172 53.6842C88.8661 52.6165 90.0823 51.2103 91.1656 49.4655L91.8297 49.8327C90.8088 51.7389 89.4807 53.3171 87.8453 54.5671C86.2151 55.8171 84.6682 56.4421 83.2047 56.4421C82.2672 56.4421 81.525 56.14 80.9781 55.5358C80.4365 54.9316 80.1656 54.1061 80.1656 53.0592C80.1656 51.5488 80.6578 50.2572 81.6422 49.1842C82.6318 48.1113 83.8219 47.5749 85.2125 47.5749C85.8844 47.5749 86.4208 47.7441 86.8219 48.0827C87.2281 48.4212 87.4312 48.8744 87.4312 49.4421C87.4312 50.3744 86.8687 51.1999 85.7437 51.9186C84.624 52.6374 83.3349 52.9967 81.8766 52.9967ZM81.9391 52.2467C83.0276 52.1895 83.9599 51.877 84.7359 51.3092C85.5172 50.7415 85.9078 50.0853 85.9078 49.3405C85.9078 48.6738 85.6109 48.3405 85.0172 48.3405C84.3088 48.3405 83.6552 48.7207 83.0562 49.4811C82.4573 50.2415 82.0849 51.1634 81.9391 52.2467ZM96.6422 52.9967C96.6422 54.5228 97.288 55.2858 98.5797 55.2858C99.6995 55.2858 100.934 54.752 102.283 53.6842C103.632 52.6165 104.848 51.2103 105.931 49.4655L106.595 49.8327C105.574 51.7389 104.246 53.3171 102.611 54.5671C100.981 55.8171 99.4338 56.4421 97.9703 56.4421C97.0328 56.4421 96.2906 56.14 95.7437 55.5358C95.2021 54.9316 94.9312 54.1061 94.9312 53.0592C94.9312 51.5488 95.4234 50.2572 96.4078 49.1842C97.3974 48.1113 98.5875 47.5749 99.9781 47.5749C100.65 47.5749 101.186 47.7441 101.587 48.0827C101.994 48.4212 102.197 48.8744 102.197 49.4421C102.197 50.3744 101.634 51.1999 100.509 51.9186C99.3896 52.6374 98.1005 52.9967 96.6422 52.9967ZM96.7047 52.2467C97.7932 52.1895 98.7255 51.877 99.5016 51.3092C100.283 50.7415 100.673 50.0853 100.673 49.3405C100.673 48.6738 100.377 48.3405 99.7828 48.3405C99.0745 48.3405 98.4208 48.7207 97.8219 49.4811C97.2229 50.2415 96.8505 51.1634 96.7047 52.2467ZM106.666 56.4577C106.78 55.9994 106.837 55.6035 106.837 55.2702C106.837 53.9837 106.564 52.5619 106.017 51.0046C105.47 49.4473 104.83 48.2728 104.095 47.4811C104.548 47.252 104.955 47.1374 105.314 47.1374C105.887 47.1374 106.465 47.89 107.048 49.3952C107.637 50.8952 108.059 52.7103 108.314 54.8405C109.226 53.6842 109.978 52.4915 110.572 51.2624C111.166 50.0332 111.502 48.9733 111.58 48.0827C112.361 48.3952 112.752 48.7494 112.752 49.1452C112.752 49.4994 112.377 50.3014 111.627 51.5514C110.882 52.8014 110.072 53.9837 109.197 55.0983C108.77 55.64 108.41 55.9889 108.119 56.1452C107.827 56.3014 107.343 56.4056 106.666 56.4577ZM115.033 52.9967C115.033 54.5228 115.679 55.2858 116.97 55.2858C118.09 55.2858 119.324 54.752 120.673 53.6842C122.022 52.6165 123.239 51.2103 124.322 49.4655L124.986 49.8327C123.965 51.7389 122.637 53.3171 121.002 54.5671C119.371 55.8171 117.824 56.4421 116.361 56.4421C115.423 56.4421 114.681 56.14 114.134 55.5358C113.593 54.9316 113.322 54.1061 113.322 53.0592C113.322 51.5488 113.814 50.2572 114.798 49.1842C115.788 48.1113 116.978 47.5749 118.369 47.5749C119.041 47.5749 119.577 47.7441 119.978 48.0827C120.384 48.4212 120.587 48.8744 120.587 49.4421C120.587 50.3744 120.025 51.1999 118.9 51.9186C117.78 52.6374 116.491 52.9967 115.033 52.9967ZM115.095 52.2467C116.184 52.1895 117.116 51.877 117.892 51.3092C118.673 50.7415 119.064 50.0853 119.064 49.3405C119.064 48.6738 118.767 48.3405 118.173 48.3405C117.465 48.3405 116.811 48.7207 116.212 49.4811C115.614 50.2415 115.241 51.1634 115.095 52.2467ZM125.408 53.4421C127.257 49.5306 128.918 47.5749 130.392 47.5749C131.543 47.5749 132.119 48.7207 132.119 51.0124L132.134 51.9577C132.134 53.0514 132.189 53.8092 132.298 54.2311C132.413 54.6478 132.619 54.8561 132.916 54.8561C133.364 54.8561 133.871 54.4994 134.439 53.7858C135.012 53.0723 135.942 51.6374 137.228 49.4811L137.884 49.8639C136.739 52.0254 135.712 53.6296 134.806 54.6764C133.9 55.7233 133.087 56.2467 132.369 56.2467C131.707 56.2467 131.241 55.9264 130.97 55.2858C130.705 54.6452 130.572 53.5358 130.572 51.9577L130.564 51.2858C130.564 50.4316 130.509 49.8327 130.4 49.4889C130.291 49.14 130.101 48.9655 129.83 48.9655C129.142 48.9655 128.035 50.3379 126.509 53.0827C126.134 53.7546 125.892 54.1869 125.783 54.3796C125.382 55.0775 125.181 55.5827 125.181 55.8952C125.181 56.0202 125.215 56.14 125.283 56.2546C124.981 56.3796 124.726 56.4421 124.517 56.4421C123.991 56.4421 123.728 56.1504 123.728 55.5671C123.728 55.4004 123.796 54.6504 123.931 53.3171L124.103 51.6217C124.181 50.903 124.22 50.3457 124.22 49.9499C124.22 49.3978 124.095 48.9629 123.845 48.6452C123.955 48.6087 124.137 48.5462 124.392 48.4577C124.715 48.3431 124.973 48.2858 125.166 48.2858C125.572 48.2858 125.775 48.5827 125.775 49.1764C125.775 49.4889 125.736 50.0254 125.658 50.7858C125.642 50.9525 125.627 51.1113 125.611 51.2624L125.408 53.4421ZM141.642 53.153C141.783 53.4082 141.853 53.6322 141.853 53.8249C141.853 54.3353 141.421 54.9004 140.556 55.5202C139.697 56.1348 138.913 56.4421 138.205 56.4421C137.58 56.4421 137.069 56.1634 136.673 55.6061C136.283 55.0488 136.087 54.3301 136.087 53.4499C136.087 52.4707 136.345 51.0775 136.861 49.2702L137.22 47.9577H135.9C135.348 47.9577 134.908 48.0358 134.58 48.1921C134.882 47.64 135.132 47.2936 135.33 47.153C135.528 47.0124 135.864 46.9421 136.337 46.9421H137.517L137.673 46.403C137.913 45.6009 138.199 45.0514 138.533 44.7546C138.866 44.4525 139.366 44.3014 140.033 44.3014C140.111 44.3014 140.236 44.3066 140.408 44.3171C140.002 44.8379 139.58 45.7129 139.142 46.9421H143.267C143.991 46.9421 144.543 46.8483 144.923 46.6608C144.793 47.1973 144.619 47.5488 144.4 47.7155C144.186 47.877 143.785 47.9577 143.197 47.9577H138.806C138.754 48.1296 138.715 48.2572 138.689 48.3405C138.059 50.4863 137.744 52.1061 137.744 53.1999C137.744 54.4082 138.179 55.0124 139.048 55.0124C139.496 55.0124 139.983 54.8223 140.509 54.4421C141.041 54.0619 141.418 53.6322 141.642 53.153ZM147.4 53.4967C147.577 53.8926 147.666 54.2702 147.666 54.6296C147.666 55.4264 147.332 56.1191 146.666 56.7077C145.999 57.3014 145.218 57.5983 144.322 57.5983C143.796 57.5983 143.348 57.4629 142.978 57.1921C142.608 56.9212 142.423 56.5957 142.423 56.2155C142.423 55.8092 142.676 55.3978 143.181 54.9811C143.692 54.5645 144.543 54.0697 145.736 53.4967L145.111 52.4889C144.351 51.265 143.97 50.3092 143.97 49.6217C143.97 48.6322 144.546 47.8353 145.697 47.2311C146.405 47.502 146.759 47.8431 146.759 48.2546C146.759 48.8379 146.309 49.3978 145.408 49.9342L146.298 51.5749L146.994 52.8405C147.989 52.2467 148.739 51.7389 149.244 51.3171C149.749 50.89 150.387 50.2337 151.158 49.3483L151.783 49.7311C150.663 51.2311 149.202 52.4863 147.4 53.4967ZM146.072 54.1999C144.541 55.0228 143.775 55.6608 143.775 56.1139C143.775 56.541 144.085 56.7546 144.705 56.7546C145.163 56.7546 145.535 56.5983 145.822 56.2858C146.108 55.9785 146.252 55.5801 146.252 55.0905C146.252 54.7988 146.192 54.502 146.072 54.1999ZM156.572 56.4186C156.702 55.9603 156.767 55.4264 156.767 54.8171C156.767 53.3431 156.587 51.8926 156.228 50.4655C155.869 49.0384 155.429 48.0358 154.908 47.4577C155.387 47.2441 155.78 47.1374 156.087 47.1374C156.65 47.1374 157.127 47.7936 157.517 49.1061C157.908 50.4134 158.176 52.2467 158.322 54.6061C159.087 53.6165 159.736 52.5619 160.267 51.4421C160.798 50.3171 161.064 49.4369 161.064 48.8014C161.064 48.7546 161.061 48.6686 161.056 48.5436C161.509 48.377 161.856 48.2936 162.095 48.2936C162.548 48.2936 162.775 48.4655 162.775 48.8092C162.775 48.9186 162.684 49.4889 162.502 50.5202C162.46 50.7702 162.429 50.9915 162.408 51.1842L162.361 51.7155C162.324 52.127 162.306 52.5905 162.306 53.1061C162.306 54.5592 162.64 55.2858 163.306 55.2858C163.921 55.2858 164.46 54.7572 164.923 53.6999C165.392 52.6426 165.627 51.4212 165.627 50.0358C165.627 49.0514 165.379 48.4603 164.884 48.2624C165.353 47.8978 165.788 47.7155 166.189 47.7155C166.814 47.7155 167.127 48.1999 167.127 49.1686C167.127 50.5905 166.627 52.2337 165.627 54.0983C164.752 55.7233 163.791 56.5358 162.744 56.5358C161.561 56.5358 160.97 55.5358 160.97 53.5358L161.025 51.7155C160.436 53.0488 159.806 54.1712 159.134 55.0827C158.473 55.9733 157.619 56.4186 156.572 56.4186ZM177.705 49.8561C176.528 51.9186 175.337 53.5332 174.134 54.6999C172.931 55.8613 171.851 56.4421 170.892 56.4421C170.309 56.4421 169.837 56.252 169.478 55.8717C169.124 55.4915 168.947 54.9915 168.947 54.3717C168.947 54.1374 168.999 53.765 169.103 53.2546L169.275 52.3952C169.53 51.1556 169.658 50.2858 169.658 49.7858C169.658 49.4889 169.569 49.2467 169.392 49.0592C170.069 48.903 170.494 48.8249 170.666 48.8249C171.051 48.8249 171.244 49.0957 171.244 49.6374C171.244 50.0384 171.168 50.6139 171.017 51.3639L170.712 52.8874C170.561 53.6217 170.486 54.0983 170.486 54.3171C170.486 54.9629 170.759 55.2858 171.306 55.2858C171.957 55.2858 172.824 54.7389 173.908 53.6452C174.991 52.5462 176.041 51.1556 177.056 49.4733L177.705 49.8561ZM170.752 45.9186L170.861 45.9264C171.21 45.9108 171.71 45.7363 172.361 45.403C173.017 45.0645 173.53 44.7207 173.9 44.3717C173.671 45.0905 173.265 45.6921 172.681 46.1764C171.796 46.916 171.197 47.2858 170.884 47.2858C170.676 47.2858 170.572 47.1582 170.572 46.903C170.572 46.5384 170.632 46.2103 170.752 45.9186ZM181.455 53.153C181.595 53.4082 181.666 53.6322 181.666 53.8249C181.666 54.3353 181.233 54.9004 180.369 55.5202C179.509 56.1348 178.726 56.4421 178.017 56.4421C177.392 56.4421 176.882 56.1634 176.486 55.6061C176.095 55.0488 175.9 54.3301 175.9 53.4499C175.9 52.4707 176.158 51.0775 176.673 49.2702L177.033 47.9577H175.712C175.16 47.9577 174.72 48.0358 174.392 48.1921C174.694 47.64 174.944 47.2936 175.142 47.153C175.34 47.0124 175.676 46.9421 176.15 46.9421H177.33L177.486 46.403C177.726 45.6009 178.012 45.0514 178.345 44.7546C178.679 44.4525 179.179 44.3014 179.845 44.3014C179.923 44.3014 180.048 44.3066 180.22 44.3171C179.814 44.8379 179.392 45.7129 178.955 46.9421H183.08C183.804 46.9421 184.356 46.8483 184.736 46.6608C184.606 47.1973 184.431 47.5488 184.212 47.7155C183.999 47.877 183.598 47.9577 183.009 47.9577H178.619C178.567 48.1296 178.528 48.2572 178.502 48.3405C177.871 50.4863 177.556 52.1061 177.556 53.1999C177.556 54.4082 177.991 55.0124 178.861 55.0124C179.309 55.0124 179.796 54.8223 180.322 54.4421C180.853 54.0619 181.231 53.6322 181.455 53.153ZM184.416 52.8171C185.968 49.3223 187.551 47.5749 189.166 47.5749C189.811 47.5749 190.278 47.8457 190.564 48.3874C190.851 48.9238 190.994 49.7962 190.994 51.0046L191.002 51.9421C191.002 53.5671 191.241 54.3926 191.72 54.4186C192.106 54.4342 192.712 53.9707 193.541 53.028C194.374 52.0853 195.22 50.9004 196.08 49.4733L196.728 49.8327C195.884 51.5046 194.931 52.9186 193.869 54.0749C192.811 55.2311 191.939 55.8092 191.252 55.8092C190.611 55.8092 190.15 55.5098 189.869 54.9108C189.587 54.3119 189.447 53.3327 189.447 51.9733V51.278C189.447 49.7051 189.176 48.9186 188.634 48.9186C187.869 48.9186 186.892 49.9733 185.705 52.0827C184.507 54.2077 183.908 55.4681 183.908 55.8639C183.908 55.9941 183.957 56.1217 184.056 56.2467C183.822 56.377 183.517 56.4421 183.142 56.4421C182.679 56.4421 182.447 56.2363 182.447 55.8249C182.447 55.5384 182.611 54.6712 182.939 53.2233C182.949 53.1764 183.017 52.8405 183.142 52.2155L184.744 44.153C184.395 44.2832 184.043 44.3483 183.689 44.3483C182.679 44.3483 182.173 43.752 182.173 42.5592C182.673 42.9342 183.254 43.1217 183.916 43.1217C184.848 43.1217 185.744 42.9342 186.603 42.5592L185.322 49.0202C185.306 49.0931 185.067 50.0619 184.603 51.9264C184.567 52.0827 184.504 52.3796 184.416 52.8171ZM201.548 52.9967C201.548 54.5228 202.194 55.2858 203.486 55.2858C204.606 55.2858 205.84 54.752 207.189 53.6842C208.538 52.6165 209.754 51.2103 210.837 49.4655L211.502 49.8327C210.481 51.7389 209.153 53.3171 207.517 54.5671C205.887 55.8171 204.34 56.4421 202.877 56.4421C201.939 56.4421 201.197 56.14 200.65 55.5358C200.108 54.9316 199.837 54.1061 199.837 53.0592C199.837 51.5488 200.33 50.2572 201.314 49.1842C202.304 48.1113 203.494 47.5749 204.884 47.5749C205.556 47.5749 206.093 47.7441 206.494 48.0827C206.9 48.4212 207.103 48.8744 207.103 49.4421C207.103 50.3744 206.541 51.1999 205.416 51.9186C204.296 52.6374 203.007 52.9967 201.548 52.9967ZM201.611 52.2467C202.699 52.1895 203.632 51.877 204.408 51.3092C205.189 50.7415 205.58 50.0853 205.58 49.3405C205.58 48.6738 205.283 48.3405 204.689 48.3405C203.981 48.3405 203.327 48.7207 202.728 49.4811C202.129 50.2415 201.757 51.1634 201.611 52.2467ZM216.025 51.4733C215.358 52.8535 214.535 54.028 213.556 54.9967C212.582 55.9603 211.733 56.4421 211.009 56.4421C210.457 56.4421 210.015 56.1973 209.681 55.7077C209.353 55.2129 209.189 54.5566 209.189 53.7389C209.189 52.1087 209.681 50.6738 210.666 49.4342C211.655 48.1947 212.798 47.5749 214.095 47.5749C214.882 47.5749 215.733 47.8197 216.65 48.3092C216.785 47.8249 217.337 47.5827 218.306 47.5827C218.369 47.5827 218.47 47.5853 218.611 47.5905C218.314 48.0436 218.087 48.6634 217.931 49.4499L217.798 50.1139C217.647 50.8535 217.572 51.7181 217.572 52.7077C217.572 53.8483 217.837 54.4186 218.369 54.4186C218.931 54.4186 219.699 53.9499 220.673 53.0124C221.653 52.0697 222.614 50.8717 223.556 49.4186L224.166 49.8405C223.202 51.5592 222.101 52.9941 220.861 54.1452C219.621 55.291 218.556 55.8639 217.666 55.8639C216.541 55.8639 215.978 54.9264 215.978 53.0514C215.978 52.6608 215.994 52.1348 216.025 51.4733ZM216.392 49.6061C215.298 48.8926 214.39 48.5358 213.666 48.5358C212.879 48.5358 212.199 49.015 211.627 49.9733C211.054 50.9264 210.767 52.0592 210.767 53.3717C210.767 54.4238 211.111 54.9499 211.798 54.9499C212.543 54.9499 213.968 53.3145 216.072 50.0436C216.098 50.002 216.205 49.8561 216.392 49.6061ZM226.65 53.4967C226.827 53.8926 226.916 54.2702 226.916 54.6296C226.916 55.4264 226.582 56.1191 225.916 56.7077C225.249 57.3014 224.468 57.5983 223.572 57.5983C223.046 57.5983 222.598 57.4629 222.228 57.1921C221.858 56.9212 221.673 56.5957 221.673 56.2155C221.673 55.8092 221.926 55.3978 222.431 54.9811C222.942 54.5645 223.793 54.0697 224.986 53.4967L224.361 52.4889C223.601 51.265 223.22 50.3092 223.22 49.6217C223.22 48.6322 223.796 47.8353 224.947 47.2311C225.655 47.502 226.009 47.8431 226.009 48.2546C226.009 48.8379 225.559 49.3978 224.658 49.9342L225.548 51.5749L226.244 52.8405C227.239 52.2467 227.989 51.7389 228.494 51.3171C228.999 50.89 229.637 50.2337 230.408 49.3483L231.033 49.7311C229.913 51.2311 228.452 52.4863 226.65 53.4967ZM225.322 54.1999C223.791 55.0228 223.025 55.6608 223.025 56.1139C223.025 56.541 223.335 56.7546 223.955 56.7546C224.413 56.7546 224.785 56.5983 225.072 56.2858C225.358 55.9785 225.502 55.5801 225.502 55.0905C225.502 54.7988 225.442 54.502 225.322 54.1999ZM230.455 52.9967C230.455 54.5228 231.101 55.2858 232.392 55.2858C233.512 55.2858 234.746 54.752 236.095 53.6842C237.444 52.6165 238.66 51.2103 239.744 49.4655L240.408 49.8327C239.387 51.7389 238.059 53.3171 236.423 54.5671C234.793 55.8171 233.246 56.4421 231.783 56.4421C230.845 56.4421 230.103 56.14 229.556 55.5358C229.015 54.9316 228.744 54.1061 228.744 53.0592C228.744 51.5488 229.236 50.2572 230.22 49.1842C231.21 48.1113 232.4 47.5749 233.791 47.5749C234.462 47.5749 234.999 47.7441 235.4 48.0827C235.806 48.4212 236.009 48.8744 236.009 49.4421C236.009 50.3744 235.447 51.1999 234.322 51.9186C233.202 52.6374 231.913 52.9967 230.455 52.9967ZM230.517 52.2467C231.606 52.1895 232.538 51.877 233.314 51.3092C234.095 50.7415 234.486 50.0853 234.486 49.3405C234.486 48.6738 234.189 48.3405 233.595 48.3405C232.887 48.3405 232.233 48.7207 231.634 49.4811C231.035 50.2415 230.663 51.1634 230.517 52.2467Z" fill="white"/>
</svg>
